<svg xmlns="http://www.w3.org/2000/svg" xmlns:xlink="http://www.w3.org/1999/xlink" version="1.1"
    id="vector" x="0px" y="0px" style="enable-background:new 0 0 432 432;" xml:space="preserve"
    viewBox="109.97 132.29 212.13 167.65">
  <style type="text/css">
    .st0{fill:#4B91FE;}	.st1{fill:#FE4F3D;}	.st2{fill:#FECB09;}	.st3{fill:#E7AA06;}	.st4{fill:#42B15F;}
  </style>
    <path class="st0"
        d="M231.3,232.2c-1.3,0.1-2.6-0.2-3.6-1.1c-1.6-1.3-1.9-2.8-2.1-4.7c-0.5-2.9-0.4-5.1-0.5-7.9c-0.1-3.5,0-7,0-10.5  v-25.6c0.5-5.8,2.2-10.4,5.8-15c0-3.5-7.2-13.3-9.5-16.3c-1.8,1.6-4.1,3.8-5.5,5.8c-4.4-5.3-8.6-9-14.8-12.1  c-2.6-1.3-5.3-2.4-8.2-3.2c-2.9-0.8-6-1.4-8.9-2c-3.7-0.7-7.3-1.5-11-2.2l-15.2-3.2c-7.6-1.6-13.9-3.9-20.7,1.8  c-3.2,2.7-5.1,6.6-5.5,10.7c-0.2,2.6-0.1,8,0,10.8l0,73.6l0,21.1c0,2.3-0.1,8.4,0.2,10.5c0.5,3.3,2.1,6.3,4.4,8.6  c4.5,4.5,9.8,4.8,15.8,6l18.3,3.9c5,1,10.7,2,15.4,3.8c2.5,1,4.9,2.3,7,4c0.6,0.5,2.1,1.5,2.5,2.1c1.7,1.3,3.6,2.9,5.3,4.1  c3.4,2.4,8.6,4.4,12.8,4.6c-1.6-0.8-2.5-1-3.9-2.5c-1.1-1.1-1.9-2.5-2.3-4.1c-0.4-1.7-0.3-4.9-0.3-6.8l0-9.2  c-5.5-5.2-12.6-9.1-19.9-10.8c-3.9-0.9-7.9-1.7-11.8-2.5l-17.2-3.6c-2.7-0.6-5.6-1.1-8.3-1.7l0-107.7l24.8,5.2l8,1.7  c2.9,0.6,5.3,1,8,2.1c2.9,1.1,5.6,2.8,7.8,4.9c1.8,1.6,3.3,3.5,4.5,5.5c4.8,7.7,3.8,14.5,3.9,23.2c0.1,6.7-0.2,13.9,0.2,20.5  c0.2,0.6,0.3,1.6,0.4,2.3c0.2,1.1,0.4,2.2,0.6,3.2c1.4,6.3,4.7,12.9,10.6,16c1.7,0.9,4.5,1.7,6.4,1.4c4.5-0.2,7.8-2.4,10-6.2  C233.8,230.9,233.6,232,231.3,232.2z" />
    <path class="st1"
        d="M225.6,226.4c2.7-4.4,3.2-8.7,4.7-13.6c2.2-7.3,3.2-19.7,10.7-23.5c5.3-2.7,11.6,0.2,14,5.4  c-0.5-0.3-0.8-0.8-1.3-1.1c-1-0.8-2.6-1-3.9-0.8c-2.9,0.6-4,3.1-4.5,5.8c-1.7,3-2.4,6-3.2,9.3c-1,3.9-2,7.9-3,11.8  c-0.7,2.7-1.4,5.6-2.6,8.1c-0.3,0.6-1.1,2.3-1.4,2.7c-1.3,0.6-1.5,1.6-3.8,1.8c-1.3,0.1-2.6-0.2-3.6-1.1  C226.1,229.8,225.8,228.3,225.6,226.4z" />
    <path class="st1"
        d="M216,156.8c1.4-2,3.7-4.2,5.5-5.8c2.3,3,9.5,12.8,9.5,16.3c-3.6,4.6-5.3,9.2-5.8,15c-0.4-0.6-0.5-4.8-0.7-5.9  C223.2,169.8,220.3,162,216,156.8z" />
    <path class="st1"
        d="M195.3,290.9c-8.2-3.7-11.9-4.1-20.8-4.1l-9.5,0l-32.1,0l-8.6,0c-4.2,0-7.6,0.3-10.9-3  c-1.8-1.8-2.9-4.1-3.3-6.5c-0.2-1.3-0.1-3-0.1-4.4l0-6l0-22.2l0-74.4c0-3.7,0.4-6.8,3.2-9.6c1.4-1.4,3.2-2.4,5.2-3  c2.3-0.6,10.5-0.4,13.3-0.3l0,73.6l0,21.1c0,2.3-0.1,8.4,0.2,10.5c0.5,3.3,2.1,6.3,4.4,8.6c4.5,4.5,9.8,4.8,15.8,6l18.3,3.9  c5,1,10.7,2,15.4,3.8c2.5,1,4.9,2.3,7,4C193.4,289.3,195,290.3,195.3,290.9z" />
    <path class="st2"
        d="M206.9,224.8c-0.3,15.1,0.2,30.4,0,45.5c0,2.3,0,4.5,0,6.8l0,9.2c0,1.9-0.1,5.1,0.3,6.8  c0.4,1.5,1.2,2.9,2.3,4.1c1.5,1.5,2.3,1.6,3.9,2.5c1.5,0.3,3.5,0.3,5,0.1c0.2-0.2,0.9-0.5,1.2-0.6c2.9-1.2,5-4,5.4-7.1  c0.2-1.9,0.1-4.1,0.1-6l0-9l0-34.5C214.2,242.7,208.5,234.6,206.9,224.8z" />
    <path class="st3"
        d="M218.7,235.2c-5.9-3.1-9.2-9.7-10.6-16c-0.2-1.1-0.5-2.2-0.6-3.2c-0.1-0.7-0.2-1.7-0.4-2.3  c-0.2,2.6-0.2,5.1-0.2,7.6c0,0.9,0,2.6,0.1,3.5c1.6,9.9,7.4,17.9,18.2,17.7c0-1.9,0-3.9,0-5.8C223.2,236.9,220.4,236.1,218.7,235.2z  " />
    <path class="st2"
        d="M321.9,168.2c-0.1-4.2-2.4-7.9-6.2-9.7c-2.8-1.3-5.6-1.1-8.6-1.1l-6.8,0c-0.2-7.1,1.3-14.2-3.9-20  c-3.5-3.8-8.8-5.8-13.9-4.9c-3.5,0.6-6.9,1.4-10.3,2.1l-15.5,3.2l-10.5,2.1c-9.7,2-17,4.3-24.6,11.1c2.3,3,9.5,12.8,9.5,16.3  c6.7-7.4,10.6-8.1,19.9-10.1l13.3-2.7l12.1-2.5c1.6-0.3,4.4-1,5.9-1.2l0,50.8c-7.8-0.5-10.7,1.2-14.3,7.9c-0.9,1.7-3.4,8.5-4.6,9  c-2.3-1.4-5.5-21-8.2-23.9c-0.5-0.3-0.8-0.8-1.3-1.1c-1-0.8-2.6-1-3.9-0.8c-2.9,0.6-4,3.1-4.5,5.8c0.7,1.4,1.4,2.7,1.9,4.2  c1.1,3.2,1.9,6.6,2.8,9.8c1.6,5.7,3.6,14.1,10.1,16c2.8,0.8,5.8,0.6,8.3-0.8c6-3.3,7.7-14.2,9.8-15.6c0.9-0.6,2.8-0.4,3.8-0.2  c0.2,11-0.1,22.2,0,33.2c0,4.4-0.1,9,0,13.4c-2.6,0.6-5.2,1.1-7.8,1.6l-24.1,5.1c-7.7,1.6-13.7,3.3-20.2,8c-1.7,1.3-3.3,2.6-4.9,3.8  l0,9c0,1.9,0.1,4.1-0.1,6c-0.4,3.1-2.5,5.9-5.4,7.1c-0.3,0.1-1,0.4-1.2,0.6c0.1,0,0.3,0,0.5,0c0.1,0,0.1,0,0.2,0c0.1,0,0.2,0,0.3,0  c0.2,0,0.4-0.1,0.5-0.1c0.3-0.1,0.7-0.1,0.9-0.2c0.5-0.1,1-0.2,1.5-0.3c0.5-0.1,1-0.2,1.4-0.4c1-0.3,1.9-0.6,2.8-1  c0.5-0.2,0.9-0.4,1.4-0.6c0.7-0.3,1.3-0.7,2-1.1c0.6-0.4,1.3-0.8,1.9-1.2c0.2-0.1,0.4-0.3,0.5-0.4c0.1-0.1,0.2-0.1,0.3-0.2  c0.3-0.2,0.5-0.4,0.8-0.6c0.9-0.7,1.7-1.5,2.6-2c1.2-0.7,2.4-1.3,3.6-1.8c0.3-0.1,0.6-0.3,0.9-0.4c0.8-0.3,1.5-0.6,2.3-0.8  c0.8-0.2,1.6-0.4,2.4-0.6c0.2,0,0.3-0.1,0.5-0.1c0.3-0.1,0.6-0.1,1-0.2s0.6-0.1,1-0.2c0.2,0,0.3,0,0.5-0.1c0.3,0,0.6-0.1,1-0.1  c0.5-0.1,1-0.1,1.5-0.2c0.6-0.1,1.3-0.1,1.9-0.2c0.2,0,0.3,0,0.5,0c0.3,0,0.7,0,1,0c0.2,0,0.3,0,0.5,0c0.3,0,0.7,0,1,0  c0.2,0,0.3,0,0.5,0c0.3,0,0.7,0,1,0c0.3,0,0.7,0,1,0c0.3,0,0.7,0,1,0c0.8,0,1.7,0,2.5,0c0.5,0,1,0,1.5,0c1.3,0,2.6,0,4,0l33,0l8.2,0  c0.7,0,1.7,0,2.6,0c0.4,0,0.7,0,1.1,0c0.6,0,1.1-0.1,1.5-0.1c0.4-0.1,0.7-0.2,1.1-0.3c0.2-0.1,0.5-0.2,0.7-0.2  c0.2-0.1,0.5-0.2,0.7-0.3c0.5-0.2,0.9-0.5,1.3-0.7c0.1-0.1,0.2-0.1,0.3-0.2c0.4-0.3,0.8-0.6,1.2-1c0.6-0.5,1-1.1,1.4-1.6  c0.2-0.2,0.3-0.5,0.5-0.7c0.2-0.4,0.5-0.8,0.6-1.3c0.1-0.2,0.1-0.3,0.2-0.5c0.1-0.3,0.2-0.5,0.2-0.8c0-0.2,0.1-0.4,0.1-0.6  c0.1-0.3,0.1-0.6,0.1-0.9c0.1-0.5,0.1-1,0.1-1.5c0-0.2,0-0.4,0-0.6l0-74.5l0-21.9l0-7.4C321.9,170.5,321.9,169.3,321.9,168.2z" />
    <path class="st4"
        d="M300.3,157.4l6.8,0c3,0,5.8-0.2,8.6,1.1c3.8,1.8,6.1,5.5,6.2,9.7c0,1.1,0,2.3,0,3.4l0,7.4l0,21.9l0,74.5  c0,3.4-0.9,6.1-3.4,8.5c-1.5,1.4-3.3,2.4-5.3,2.7c-1.3,0.2-3.8,0.2-5.2,0.2l-8.2,0l-33,0c-10.5,0-21.3-1.1-30.7,4.6  c-1.5,0.9-2.8,2.3-4.2,3.3c-3.3,2.3-7,3.9-10.9,4.6c-0.6,0.1-1.9,0.3-2.5,0.3c0.2-0.2,0.9-0.5,1.2-0.6c2.9-1.2,5-4,5.4-7.1  c0.2-1.9,0.1-4.1,0.1-6l0-9c1.7-1.2,3.2-2.6,4.9-3.8c6.5-4.7,12.5-6.4,20.2-8c-0.3,0.3-1.1,0.7-1.5,0.9c-1.1,0.6-2,1.2-2.9,2.1  c-5.1,5.3-5.4,14.3-5.3,21.1c5.8-4.2,13.9-6.6,20.8-8l19.5-4.2c2.3-0.5,7.9-1.5,9.8-2.3c2.1-0.9,4-2.2,5.5-3.9  c3.3-3.5,4.2-7.5,4.1-12.2c-0.1-2.7,0-5.4,0-8.1l0-22.8l0-46.2l0-15.1C300.3,163.5,300.4,160.3,300.3,157.4z" />
</svg>
